<svg width="30" height="30" viewBox="0 0 30 30" fill="none" xmlns="http://www.w3.org/2000/svg">
<g clip-path="url(#clip0_15_41)">
<path d="M1.406 12H28.594V10H1.406V12ZM28 11.406V12.284H30V11.406H28ZM24.772 28H5.228V30H24.772V28ZM2 12.284V11.406H0V12.284H2ZM5.792 28.348C3.2982 23.3603 1.99993 17.8604 2 12.284H0C0 18.172 1.37 23.978 4.004 29.244L5.792 28.348ZM5.228 28C5.468 28 5.686 28.136 5.792 28.348L4.004 29.244C4.11786 29.4711 4.29263 29.6621 4.50878 29.7956C4.72493 29.9291 4.97395 29.9999 5.228 30V28ZM24.208 28.348C24.2604 28.2433 24.3409 28.1553 24.4405 28.0939C24.5402 28.0324 24.6549 27.9999 24.772 28V30C25.292 30 25.764 29.708 25.996 29.244L24.208 28.348ZM28 12.284C28 17.86 26.7 23.36 24.208 28.348L25.996 29.244C28.6292 23.9782 30 18.1715 30 12.284H28ZM28.594 12C28.4365 12 28.2854 11.9374 28.174 11.826C28.0626 11.7146 28 11.5636 28 11.406H30C30 11.0331 29.8519 10.6755 29.5882 10.4118C29.3245 10.1482 28.9669 10 28.594 10V12ZM1.406 10C1.03311 10 0.675484 10.1482 0.411808 10.4118C0.148132 10.6755 0 11.0331 0 11.406H2C2 11.5636 1.93742 11.7146 1.82602 11.826C1.71462 11.9374 1.56354 12 1.406 12V10ZM7.858 11.514L13.858 1.51402L12.14 0.486023L6.14 10.486L7.858 11.514ZM16.142 1.51402L22.142 11.514L23.858 10.486L17.858 0.486023L16.142 1.51402Z" fill="white"/>
</g>
<defs>
<clipPath id="clip0_15_41">
<rect width="30" height="30" fill="white"/>
</clipPath>
</defs>
</svg>
