<svg width="108" height="88" viewBox="0 0 108 88" fill="none" xmlns="http://www.w3.org/2000/svg">
<path fill-rule="evenodd" clip-rule="evenodd" d="M100.635 35.7951C100.249 34.735 98.7508 34.735 98.3646 35.7951C98.3646 35.7951 98.0278 39.1968 96.6123 40.6123C95.1968 42.0278 91.7951 42.3646 91.7951 42.3646C90.735 42.7508 90.735 44.2492 91.7951 44.6354C91.7951 44.6354 95.1968 44.9722 96.6123 46.3877C98.0278 47.8032 98.3646 51.2049 98.3646 51.2049C98.7508 52.265 100.249 52.265 100.635 51.2049C100.635 51.2049 100.972 47.8032 102.388 46.3877C103.803 44.9722 107.205 44.6354 107.205 44.6354C108.265 44.2492 108.265 42.7508 107.205 42.3646C107.205 42.3646 103.803 42.0278 102.388 40.6123C100.972 39.1968 100.635 35.7951 100.635 35.7951Z" fill="#0C0C0C"/>
<path d="M4.5 1C2.35767 2.55819 1.64176 3.67852 1 6C6.62946 5.50091 9.11955 6.3122 12.5 9.5L72.5 87H79L79.5 13.5C79.9711 7.70505 81.6634 5.47609 91.5 5.5V1H61.5V5.5C69.3757 5.73293 71.5235 7.92569 72 13.5V66L23.5 1H4.5Z" fill="#0C0C0C" stroke="#0C0C0C"/>
</svg>
