<svg width="38" height="38" viewBox="0 0 38 38" fill="none" xmlns="http://www.w3.org/2000/svg">
<path d="M17.5822 1.32341C17.8286 0.397131 20.1714 0.397131 20.4178 1.32341C21.4399 5.1658 23.115 9.61048 25.7523 12.2477C28.3895 14.885 32.8342 16.5601 36.6766 17.5822C37.6029 17.8286 37.6029 20.1714 36.6766 20.4178C32.8342 21.4399 28.3895 23.115 25.7523 25.7523C23.115 28.3895 21.4399 32.8342 20.4178 36.6766C20.1714 37.6029 17.8286 37.6029 17.5822 36.6766C16.5601 32.8342 14.885 28.3895 12.2477 25.7523C9.61048 23.115 5.1658 21.4399 1.32341 20.4178C0.397131 20.1714 0.397131 17.8286 1.32341 17.5822C5.1658 16.5601 9.61048 14.885 12.2477 12.2477C14.885 9.61048 16.5601 5.1658 17.5822 1.32341Z" fill="#0C0C0C"/>
</svg>
