<svg width="32" height="32" viewBox="0 0 32 32" fill="none" xmlns="http://www.w3.org/2000/svg">
<path d="M15.1814 0.591542C15.3173 0.00809383 16.6827 0.00809383 16.8186 0.591542C17.589 3.90026 18.9943 8.19065 21.4018 10.5982C23.8094 13.0057 28.0997 14.411 31.4085 15.1814C31.9919 15.3173 31.9919 16.6827 31.4085 16.8186C28.0997 17.589 23.8094 18.9943 21.4018 21.4018C18.9943 23.8094 17.589 28.0997 16.8186 31.4085C16.6827 31.9919 15.3173 31.9919 15.1814 31.4085C14.411 28.0997 13.0057 23.8094 10.5982 21.4018C8.19065 18.9943 3.90026 17.589 0.591542 16.8186C0.00809383 16.6827 0.00809383 15.3173 0.591542 15.1814C3.90026 14.411 8.19065 13.0057 10.5982 10.5982C13.0057 8.19065 14.411 3.90026 15.1814 0.591542Z" fill="white"/>
</svg>
