<svg width="152" height="152" viewBox="0 0 152 152" fill="none" xmlns="http://www.w3.org/2000/svg">
<rect width="151.196" height="151.196" fill="#001AF5"/>
<path fill-rule="evenodd" clip-rule="evenodd" d="M118.659 67.977C118.295 66.9783 116.883 66.9783 116.52 67.977C116.52 67.977 116.202 71.1815 114.869 72.515C113.535 73.8484 110.331 74.1657 110.331 74.1657C109.332 74.5295 109.332 75.9411 110.331 76.3048C110.331 76.3048 113.535 76.6221 114.869 77.9555C116.202 79.289 116.52 82.4935 116.52 82.4935C116.883 83.4922 118.295 83.4922 118.659 82.4935C118.659 82.4935 118.976 79.289 120.309 77.9555C121.643 76.6221 124.847 76.3048 124.847 76.3048C125.846 75.9411 125.846 74.5295 124.847 74.1657C124.847 74.1657 121.643 73.8484 120.309 72.515C118.976 71.1815 118.659 67.977 118.659 67.977Z" fill="white"/>
<path d="M28.0964 35.199C26.0783 36.6669 25.4039 37.7223 24.7993 39.9092C30.1024 39.439 32.4482 40.2033 35.6327 43.2063L92.1544 116.214H98.2776L98.7486 46.9744C99.1924 41.5154 100.787 39.4156 110.053 39.4381V35.199H81.7921V39.4381C89.2113 39.6576 91.2346 41.7232 91.6834 46.9744V96.4309L45.995 35.199H28.0964Z" fill="white" stroke="white"/>
</svg>
